<?xml version="1.0" standalone="no"?><!DOCTYPE svg PUBLIC "-//W3C//DTD SVG 1.1//EN" "http://www.w3.org/Graphics/SVG/1.1/DTD/svg11.dtd"><svg xmlns:xlink="http://www.w3.org/1999/xlink" version="1.1" style="font-family:'lucida grande', 'lucida sans unicode', arial, helvetica, sans-serif;font-size:12px;" xmlns="http://www.w3.org/2000/svg" width="600" height="400"><desc>Created with Highcharts 4.2.7</desc><defs><radialGradient cx="0.5" cy="0.3" r="0.7" id="highcharts-28"><stop offset="0" stop-color="#0064e9" stop-opacity="1"></stop><stop offset="1" stop-color="rgb(0,24,157)" stop-opacity="1"></stop></radialGradient><radialGradient cx="0.5" cy="0.3" r="0.7" id="highcharts-29"><stop offset="0" stop-color="#ed561b" stop-opacity="1"></stop><stop offset="1" stop-color="rgb(161,10,0)" stop-opacity="1"></stop></radialGradient><radialGradient cx="0.5" cy="0.3" r="0.7" id="highcharts-30"><stop offset="0" stop-color="#DDDF00" stop-opacity="1"></stop><stop offset="1" stop-color="rgb(145,147,0)" stop-opacity="1"></stop></radialGradient><radialGradient cx="0.5" cy="0.3" r="0.7" id="highcharts-31"><stop offset="0" stop-color="#24CBE5" stop-opacity="1"></stop><stop offset="1" stop-color="rgb(0,127,153)" stop-opacity="1"></stop></radialGradient><clipPath id="highcharts-32"><rect x="1" y="1" width="578" height="335"></rect></clipPath><radialGradient cx="290" cy="104.8" r="221.2" id="highcharts-33" gradientUnits="userSpaceOnUse"><stop offset="0" stop-color="#0064e9" stop-opacity="1"></stop><stop offset="1" stop-color="rgb(0,24,157)" stop-opacity="1"></stop></radialGradient><radialGradient cx="290" cy="104.8" r="221.2" id="highcharts-34" gradientUnits="userSpaceOnUse"><stop offset="0" stop-color="#ed561b" stop-opacity="1"></stop><stop offset="1" stop-color="rgb(161,10,0)" stop-opacity="1"></stop></radialGradient><radialGradient cx="290" cy="104.8" r="221.2" id="highcharts-35" gradientUnits="userSpaceOnUse"><stop offset="0" stop-color="#DDDF00" stop-opacity="1"></stop><stop offset="1" stop-color="rgb(145,147,0)" stop-opacity="1"></stop></radialGradient><radialGradient cx="290" cy="104.8" r="221.2" id="highcharts-36" gradientUnits="userSpaceOnUse"><stop offset="0" stop-color="#24CBE5" stop-opacity="1"></stop><stop offset="1" stop-color="rgb(0,127,153)" stop-opacity="1"></stop></radialGradient></defs><rect x="10" y="10" width="580" height="337" fill="#ffffff"></rect><rect x="10" y="10" width="580" height="337" stroke="#026FC1" stroke-width="2" fill="none"></rect><g class="highcharts-series-group"><g class="highcharts-series highcharts-series-0" transform="translate(10,10) scale(1 1)"><path fill="url(#highcharts-33)" d="M 289.96781963381613 10.000003277139172 A 158 158 0 0 1 446.40971889861567 190.36067606437757 L 290 168 A 0 0 0 0 0 290 168 Z" stroke="#FFFFFF" stroke-width="1" stroke-linejoin="round" transform="translate(0,0)"></path><path fill="url(#highcharts-34)" d="M 446.3872800214251 190.51707457687078 A 158 158 0 0 1 245.69788104517357 319.6618681676855 L 290 168 A 0 0 0 0 0 290 168 Z" stroke="#FFFFFF" stroke-width="1" stroke-linejoin="round" transform="translate(0,0)"></path><path fill="url(#highcharts-35)" d="M 245.54624135334052 319.61749022518654 A 158 158 0 0 1 133.6260922674719 190.60975409991866 L 290 168 A 0 0 0 0 0 290 168 Z" stroke="#FFFFFF" stroke-width="1" stroke-linejoin="round" transform="translate(0,0)"></path><path fill="url(#highcharts-36)" d="M 133.6035607040876 190.45336891337237 A 158 158 0 0 1 289.78054116978467 10.000152412029706 L 290 168 A 0 0 0 0 0 290 168 Z" stroke="#FFFFFF" stroke-width="1" stroke-linejoin="round" transform="translate(0,0)"></path></g><g class="highcharts-markers highcharts-series-0" transform="translate(10,10) scale(1 1)"></g></g><g class="highcharts-data-labels highcharts-series-0" transform="translate(10,10) scale(1 1)" opacity="1"><path fill="none" d="M 437.08091997860055 44.88618201828639 C 432.08091997860055 44.88618201828639 426.03492338376645 50.12506788984868 417.72167806586964 57.328535963246814 L 409.4084327479728 64.53200403664495" stroke="url(#highcharts-28)" stroke-width="1"></path><path fill="none" d="M 396.64047368165234 326.15566417226205 C 391.64047368165234 326.15566417226205 387.31534714200757 319.4256359096126 381.368298149996 310.1718470484696 L 375.42124915798445 300.9180581873266" stroke="url(#highcharts-29)" stroke-width="1"></path><path fill="none" d="M 142.91908002139945 291.1138179817136 C 147.91908002139945 291.1138179817136 153.96507661623352 285.87493211015135 162.27832193413036 278.6714640367532 L 170.5915672520272 271.46799596335507" stroke="url(#highcharts-30)" stroke-width="1"></path><path fill="none" d="M 142.91908002139942 44.886182018286426 C 147.91908002139942 44.886182018286426 153.9650766162335 50.12506788984871 162.27832193413033 57.32853596324684 L 170.59156725202718 64.53200403664498" stroke="url(#highcharts-31)" stroke-width="1"></path><g style="cursor:pointer;" transform="translate(442,35)"><text x="5" style="font-size:10px;font-weight:bold;font-family:'arial', sans-serif;color:#000;text-shadow:none;fill:#000;text-rendering:geometricprecision;" y="15"><tspan>Burnt: 3</tspan></text></g><g style="cursor:pointer;" transform="translate(402,316)"><text x="5" style="font-size:10px;font-weight:bold;font-family:'arial', sans-serif;color:#000;text-shadow:none;fill:#000;text-rendering:geometricprecision;" y="15"><tspan>Rewards: 3</tspan></text></g><g style="cursor:pointer;" transform="translate(25,281)"><text x="5" style="font-size:10px;font-weight:bold;font-family:'arial', sans-serif;color:#000;text-shadow:none;fill:#000;text-rendering:geometricprecision;" y="15"><tspan>Marketing Treasury: 2</tspan></text></g><g style="cursor:pointer;" transform="translate(58,35)"><text x="5" style="font-size:10px;font-weight:bold;font-family:'arial', sans-serif;color:#000;text-shadow:none;fill:#000;text-rendering:geometricprecision;" y="15"><tspan>VC Treasury: 3</tspan></text></g></g><g class="highcharts-legend" transform="translate(88,359)"><g><g><g class="highcharts-legend-item" transform="translate(8,3)"><text x="21" style="color:#333;font-size:9pt;font-weight:normal;cursor:pointer;font-family:'lucida grande','lucida sans unicode',arial,helvetica,sans-serif;text-transform:none;fill:#333;" text-anchor="start" y="15">Burnt</text><rect x="0" y="4" width="16" height="12" fill="url(#highcharts-28)"></rect></g><g class="highcharts-legend-item" transform="translate(80.203125,3)"><text x="21" y="15" style="color:#333;font-size:9pt;font-weight:normal;cursor:pointer;font-family:'lucida grande','lucida sans unicode',arial,helvetica,sans-serif;text-transform:none;fill:#333;" text-anchor="start">Rewards</text><rect x="0" y="4" width="16" height="12" fill="url(#highcharts-29)"></rect></g><g class="highcharts-legend-item" transform="translate(169.9375,3)"><text x="21" y="15" style="color:#333;font-size:9pt;font-weight:normal;cursor:pointer;font-family:'lucida grande','lucida sans unicode',arial,helvetica,sans-serif;text-transform:none;fill:#333;" text-anchor="start"><tspan>Marketing Treasury</tspan></text><rect x="0" y="4" width="16" height="12" fill="url(#highcharts-30)"></rect></g><g class="highcharts-legend-item" transform="translate(323.75,3)"><text x="21" y="15" style="color:#333;font-size:9pt;font-weight:normal;cursor:pointer;font-family:'lucida grande','lucida sans unicode',arial,helvetica,sans-serif;text-transform:none;fill:#333;" text-anchor="start"><tspan>VC Treasury</tspan></text><rect x="0" y="4" width="16" height="12" fill="url(#highcharts-31)"></rect></g></g></g></g><g class="highcharts-tooltip" display="none" style="cursor:default;padding:0;pointer-events:none;white-space:nowrap;" transform="translate(0,0)"><path fill="none" d="M 3.5 0.5 L 13.5 0.5 C 16.5 0.5 16.5 0.5 16.5 3.5 L 16.5 13.5 C 16.5 16.5 16.5 16.5 13.5 16.5 L 3.5 16.5 C 0.5 16.5 0.5 16.5 0.5 13.5 L 0.5 3.5 C 0.5 0.5 0.5 0.5 3.5 0.5"  stroke="black" stroke-opacity="0.049999999999999996" stroke-width="5" transform="translate(1, 1)"></path><path fill="none" d="M 3.5 0.5 L 13.5 0.5 C 16.5 0.5 16.5 0.5 16.5 3.5 L 16.5 13.5 C 16.5 16.5 16.5 16.5 13.5 16.5 L 3.5 16.5 C 0.5 16.5 0.5 16.5 0.5 13.5 L 0.5 3.5 C 0.5 0.5 0.5 0.5 3.5 0.5"  stroke="black" stroke-opacity="0.09999999999999999" stroke-width="3" transform="translate(1, 1)"></path><path fill="none" d="M 3.5 0.5 L 13.5 0.5 C 16.5 0.5 16.5 0.5 16.5 3.5 L 16.5 13.5 C 16.5 16.5 16.5 16.5 13.5 16.5 L 3.5 16.5 C 0.5 16.5 0.5 16.5 0.5 13.5 L 0.5 3.5 C 0.5 0.5 0.5 0.5 3.5 0.5"  stroke="black" stroke-opacity="0.15" stroke-width="1" transform="translate(1, 1)"></path><path fill="rgb(249, 249, 249)" fill-opacity=" .85" d="M 3.5 0.5 L 13.5 0.5 C 16.5 0.5 16.5 0.5 16.5 3.5 L 16.5 13.5 C 16.5 16.5 16.5 16.5 13.5 16.5 L 3.5 16.5 C 0.5 16.5 0.5 16.5 0.5 13.5 L 0.5 3.5 C 0.5 0.5 0.5 0.5 3.5 0.5"></path><text x="8" style="font-size:12px;color:#000000;fill:#000000;" y="20"></text></g><text x="590" text-anchor="end" style="cursor:pointer;color:#909090;font-size:9px;fill:#909090;" y="395">meta-chart.com</text></svg>