<svg xmlns="http://www.w3.org/2000/svg" xmlns:xlink="http://www.w3.org/1999/xlink" width="375" zoomAndPan="magnify" viewBox="0 0 281.25 281.249989" height="375" preserveAspectRatio="xMidYMid meet" version="1.0"><defs><clipPath id="f11b1b997a"><path d="M 216 125 L 254.105469 125 L 254.105469 155.585938 L 216 155.585938 Z M 216 125 " clip-rule="nonzero"/></clipPath><clipPath id="4ed2ae216c"><path d="M 231.132812 26.339844 L 254.105469 26.339844 L 254.105469 49.367188 L 231.132812 49.367188 Z M 231.132812 26.339844 " clip-rule="nonzero"/></clipPath><clipPath id="a474a42e1b"><path d="M 231.132812 231.132812 L 254.105469 231.132812 L 254.105469 254.105469 L 231.132812 254.105469 Z M 231.132812 231.132812 " clip-rule="nonzero"/></clipPath><clipPath id="1dc14cfe42"><path d="M 125 216 L 155.585938 216 L 155.585938 254.105469 L 125 254.105469 Z M 125 216 " clip-rule="nonzero"/></clipPath><clipPath id="a8aa51cd74"><path d="M 125 26.339844 L 155.585938 26.339844 L 155.585938 64.328125 L 125 64.328125 Z M 125 26.339844 " clip-rule="nonzero"/></clipPath><clipPath id="cc028bff40"><path d="M 26.339844 125 L 64.328125 125 L 64.328125 155.585938 L 26.339844 155.585938 Z M 26.339844 125 " clip-rule="nonzero"/></clipPath><clipPath id="4dd2baadab"><path d="M 26.339844 26.339844 L 49.367188 26.339844 L 49.367188 49.367188 L 26.339844 49.367188 Z M 26.339844 26.339844 " clip-rule="nonzero"/></clipPath><clipPath id="1c3e4c7fe3"><path d="M 26.339844 231.132812 L 49.367188 231.132812 L 49.367188 254.105469 L 26.339844 254.105469 Z M 26.339844 231.132812 " clip-rule="nonzero"/></clipPath><clipPath id="c805f15c52"><path d="M 82.203125 82.203125 L 198.332031 82.203125 L 198.332031 198.332031 L 82.203125 198.332031 Z M 82.203125 82.203125 " clip-rule="nonzero"/></clipPath></defs><g clip-path="url(#f11b1b997a)"><path fill="#d5bdaf" d="M 236.226562 154.304688 C 236.984375 155.027344 237.9375 155.40625 238.921875 155.40625 C 239.90625 155.40625 240.859375 155.027344 241.617188 154.304688 L 253.003906 142.917969 C 253.347656 142.578125 253.613281 142.160156 253.800781 141.703125 C 253.878906 141.511719 253.953125 141.359375 253.953125 141.171875 C 254.144531 140.5625 254.144531 139.878906 253.953125 139.273438 C 253.953125 139.082031 253.878906 138.929688 253.800781 138.742188 C 253.613281 138.289062 253.347656 137.871094 253.003906 137.527344 L 241.617188 126.136719 C 240.136719 124.65625 237.707031 124.65625 236.226562 126.136719 C 234.746094 127.621094 234.746094 130.046875 236.226562 131.527344 L 241.160156 136.425781 L 219.941406 136.425781 C 217.855469 136.425781 216.144531 138.136719 216.144531 140.222656 C 216.144531 142.3125 217.855469 144.015625 219.941406 144.015625 L 241.160156 144.015625 L 236.226562 148.914062 C 234.746094 150.394531 234.746094 152.824219 236.226562 154.304688 Z M 236.226562 154.304688 " fill-opacity="1" fill-rule="nonzero"/></g><g clip-path="url(#4ed2ae216c)"><path fill="#d5bdaf" d="M 242.71875 49.113281 C 248.980469 49.113281 254.105469 43.988281 254.105469 37.726562 C 254.105469 31.464844 248.980469 26.339844 242.71875 26.339844 C 236.453125 26.339844 231.328125 31.464844 231.328125 37.726562 C 231.328125 43.988281 236.453125 49.113281 242.71875 49.113281 Z M 242.71875 33.933594 C 244.804688 33.933594 246.515625 35.636719 246.515625 37.726562 C 246.515625 39.8125 244.804688 41.523438 242.71875 41.523438 C 240.628906 41.523438 238.921875 39.8125 238.921875 37.726562 C 238.921875 35.636719 240.628906 33.933594 242.71875 33.933594 Z M 242.71875 33.933594 " fill-opacity="1" fill-rule="nonzero"/></g><g clip-path="url(#a474a42e1b)"><path fill="#d5bdaf" d="M 242.71875 231.328125 C 236.453125 231.328125 231.328125 236.453125 231.328125 242.71875 C 231.328125 248.980469 236.453125 254.105469 242.71875 254.105469 C 248.980469 254.105469 254.105469 248.980469 254.105469 242.71875 C 254.105469 236.453125 248.980469 231.328125 242.71875 231.328125 Z M 242.71875 246.515625 C 240.628906 246.515625 238.921875 244.804688 238.921875 242.71875 C 238.921875 240.628906 240.628906 238.921875 242.71875 238.921875 C 244.804688 238.921875 246.515625 240.628906 246.515625 242.71875 C 246.515625 244.804688 244.804688 246.515625 242.71875 246.515625 Z M 242.71875 246.515625 " fill-opacity="1" fill-rule="nonzero"/></g><path fill="#d5bdaf" d="M 231.328125 212.347656 C 231.328125 210.257812 229.621094 208.554688 227.535156 208.554688 C 225.445312 208.554688 223.738281 210.257812 223.738281 212.347656 L 223.738281 218.347656 L 199.859375 194.46875 C 198.378906 192.988281 195.949219 192.988281 194.46875 194.46875 C 192.988281 195.949219 192.988281 198.378906 194.46875 199.859375 L 218.347656 223.738281 L 212.347656 223.738281 C 210.257812 223.738281 208.554688 225.445312 208.554688 227.535156 C 208.554688 229.621094 210.257812 231.328125 212.347656 231.328125 L 227.535156 231.328125 C 229.621094 231.328125 231.328125 229.621094 231.328125 227.535156 Z M 231.328125 212.347656 " fill-opacity="1" fill-rule="nonzero"/><path fill="#d5bdaf" d="M 197.164062 87.074219 C 198.152344 87.074219 199.101562 86.695312 199.859375 85.976562 L 223.738281 62.097656 L 223.738281 68.09375 C 223.738281 70.183594 225.445312 71.894531 227.535156 71.894531 C 229.621094 71.894531 231.328125 70.183594 231.328125 68.09375 L 231.328125 52.914062 C 231.328125 50.824219 229.621094 49.113281 227.535156 49.113281 L 212.347656 49.113281 C 210.257812 49.113281 208.554688 50.824219 208.554688 52.914062 C 208.554688 55 210.257812 56.707031 212.347656 56.707031 L 218.347656 56.707031 L 194.46875 80.585938 C 192.988281 82.0625 192.988281 84.496094 194.46875 85.976562 C 195.230469 86.695312 196.175781 87.074219 197.164062 87.074219 Z M 197.164062 87.074219 " fill-opacity="1" fill-rule="nonzero"/><path fill="#d5bdaf" d="M 190.785156 136.617188 L 180.878906 133.3125 L 173.96875 119.535156 C 173.324219 118.242188 172.03125 117.445312 170.59375 117.445312 L 147.816406 117.445312 L 147.816406 106.054688 C 147.816406 103.96875 146.105469 102.261719 144.015625 102.261719 L 113.648438 102.261719 C 111.5625 102.261719 109.855469 103.96875 109.855469 106.054688 L 109.855469 117.445312 L 98.464844 117.445312 C 96.375 117.445312 94.667969 119.15625 94.667969 121.242188 L 94.667969 132.628906 L 90.875 132.628906 C 88.785156 132.628906 87.074219 134.335938 87.074219 136.425781 L 87.074219 159.203125 C 87.074219 160 87.304688 160.722656 87.722656 161.328125 C 88.40625 162.3125 89.582031 162.996094 90.875 162.996094 L 106.738281 162.996094 C 108.296875 167.402344 112.511719 170.59375 117.445312 170.59375 C 122.378906 170.59375 126.59375 167.402344 128.152344 162.996094 L 156.089844 162.996094 C 157.644531 167.402344 161.863281 170.59375 166.796875 170.59375 C 171.730469 170.59375 175.945312 167.402344 177.5 162.996094 L 189.574219 162.996094 C 190.859375 162.996094 192.039062 162.3125 192.722656 161.328125 C 193.140625 160.722656 193.367188 160 193.367188 159.203125 L 193.367188 140.222656 C 193.367188 138.589844 192.304688 137.148438 190.785156 136.617188 Z M 172.03125 132.628906 L 162.996094 132.628906 L 162.996094 125.035156 L 168.238281 125.035156 Z M 117.445312 109.855469 L 125.035156 109.855469 L 125.035156 117.445312 C 125.035156 119.535156 126.746094 121.242188 128.835938 121.242188 C 130.921875 121.242188 132.628906 119.535156 132.628906 117.445312 L 132.628906 109.855469 L 140.222656 109.855469 L 140.222656 132.628906 L 117.445312 132.628906 Z M 102.261719 125.035156 L 109.855469 125.035156 L 109.855469 132.628906 L 102.261719 132.628906 Z M 117.445312 162.996094 C 115.355469 162.996094 113.648438 161.292969 113.648438 159.203125 C 113.648438 157.117188 115.355469 155.40625 117.445312 155.40625 C 119.535156 155.40625 121.242188 157.117188 121.242188 159.203125 C 121.242188 161.292969 119.535156 162.996094 117.445312 162.996094 Z M 166.796875 162.996094 C 164.707031 162.996094 162.996094 161.292969 162.996094 159.203125 C 162.996094 157.117188 164.707031 155.40625 166.796875 155.40625 C 168.882812 155.40625 170.59375 157.117188 170.59375 159.203125 C 170.59375 161.292969 168.882812 162.996094 166.796875 162.996094 Z M 166.796875 162.996094 " fill-opacity="1" fill-rule="nonzero"/><path fill="#d5bdaf" d="M 140.222656 71.894531 C 102.5625 71.894531 71.894531 102.527344 71.894531 140.222656 C 71.894531 177.917969 102.5625 208.554688 140.222656 208.554688 C 177.878906 208.554688 208.554688 177.917969 208.554688 140.222656 C 208.554688 102.527344 177.878906 71.894531 140.222656 71.894531 Z M 140.222656 200.960938 C 114.75 200.960938 92.847656 185.167969 83.886719 162.847656 C 81.042969 155.863281 79.484375 148.230469 79.484375 140.222656 C 79.484375 106.738281 106.738281 79.484375 140.222656 79.484375 C 173.703125 79.484375 200.960938 106.738281 200.960938 140.222656 C 200.960938 148.230469 199.40625 155.863281 196.554688 162.847656 C 187.597656 185.167969 165.695312 200.960938 140.222656 200.960938 Z M 140.222656 200.960938 " fill-opacity="1" fill-rule="nonzero"/><g clip-path="url(#1dc14cfe42)"><path fill="#d5bdaf" d="M 148.914062 236.226562 L 144.015625 241.160156 L 144.015625 219.941406 C 144.015625 217.855469 142.3125 216.144531 140.222656 216.144531 C 138.136719 216.144531 136.425781 217.855469 136.425781 219.941406 L 136.425781 241.160156 L 131.527344 236.226562 C 130.046875 234.746094 127.621094 234.746094 126.136719 236.226562 C 124.65625 237.707031 124.65625 240.136719 126.136719 241.617188 L 137.527344 253.003906 C 137.90625 253.347656 138.324219 253.613281 138.742188 253.800781 C 138.929688 253.878906 139.082031 253.953125 139.273438 253.953125 C 139.574219 254.066406 139.878906 254.105469 140.222656 254.105469 C 140.5625 254.105469 140.867188 254.066406 141.171875 253.953125 C 141.359375 253.953125 141.511719 253.878906 141.703125 253.800781 C 142.121094 253.613281 142.539062 253.347656 142.917969 253.003906 L 154.304688 241.617188 C 155.785156 240.136719 155.785156 237.707031 154.304688 236.226562 C 152.824219 234.746094 150.394531 234.746094 148.914062 236.226562 Z M 148.914062 236.226562 " fill-opacity="1" fill-rule="nonzero"/></g><g clip-path="url(#a8aa51cd74)"><path fill="#d5bdaf" d="M 131.527344 44.21875 L 136.425781 39.28125 L 136.425781 60.503906 C 136.425781 62.59375 138.136719 64.300781 140.222656 64.300781 C 142.3125 64.300781 144.015625 62.59375 144.015625 60.503906 L 144.015625 39.28125 L 148.914062 44.21875 C 149.675781 44.9375 150.625 45.320312 151.609375 45.320312 C 152.597656 45.320312 153.546875 44.9375 154.304688 44.21875 C 155.785156 42.738281 155.785156 40.308594 154.304688 38.828125 L 142.917969 27.441406 C 142.578125 27.097656 142.160156 26.832031 141.703125 26.640625 C 141.511719 26.566406 141.359375 26.488281 141.171875 26.488281 C 140.5625 26.300781 139.878906 26.300781 139.273438 26.488281 C 139.082031 26.488281 138.929688 26.566406 138.742188 26.640625 C 138.289062 26.832031 137.871094 27.097656 137.527344 27.441406 L 126.136719 38.828125 C 124.65625 40.308594 124.65625 42.738281 126.136719 44.21875 C 127.621094 45.699219 130.046875 45.699219 131.527344 44.21875 Z M 131.527344 44.21875 " fill-opacity="1" fill-rule="nonzero"/></g><path fill="#d5bdaf" d="M 80.585938 194.46875 L 56.707031 218.347656 L 56.707031 212.347656 C 56.707031 210.257812 55 208.554688 52.914062 208.554688 C 50.824219 208.554688 49.113281 210.257812 49.113281 212.347656 L 49.113281 227.535156 C 49.113281 229.621094 50.824219 231.328125 52.914062 231.328125 L 68.09375 231.328125 C 70.183594 231.328125 71.894531 229.621094 71.894531 227.535156 C 71.894531 225.445312 70.183594 223.738281 68.09375 223.738281 L 62.097656 223.738281 L 85.976562 199.859375 C 87.457031 198.378906 87.457031 195.949219 85.976562 194.46875 C 84.496094 192.988281 82.0625 192.988281 80.585938 194.46875 Z M 80.585938 194.46875 " fill-opacity="1" fill-rule="nonzero"/><path fill="#d5bdaf" d="M 49.113281 68.09375 C 49.113281 70.183594 50.824219 71.894531 52.914062 71.894531 C 55 71.894531 56.707031 70.183594 56.707031 68.09375 L 56.707031 62.097656 L 80.585938 85.976562 C 81.34375 86.695312 82.292969 87.074219 83.28125 87.074219 C 84.265625 87.074219 85.21875 86.695312 85.976562 85.976562 C 87.457031 84.496094 87.457031 82.0625 85.976562 80.585938 L 62.097656 56.707031 L 68.09375 56.707031 C 70.183594 56.707031 71.894531 55 71.894531 52.914062 C 71.894531 50.824219 70.183594 49.113281 68.09375 49.113281 L 52.914062 49.113281 C 50.824219 49.113281 49.113281 50.824219 49.113281 52.914062 Z M 49.113281 68.09375 " fill-opacity="1" fill-rule="nonzero"/><g clip-path="url(#cc028bff40)"><path fill="#d5bdaf" d="M 64.300781 140.222656 C 64.300781 138.136719 62.59375 136.425781 60.503906 136.425781 L 39.28125 136.425781 L 44.21875 131.527344 C 45.699219 130.046875 45.699219 127.621094 44.21875 126.136719 C 42.738281 124.65625 40.308594 124.65625 38.828125 126.136719 L 27.441406 137.527344 C 27.097656 137.871094 26.832031 138.289062 26.640625 138.742188 C 26.566406 138.929688 26.488281 139.082031 26.488281 139.273438 C 26.300781 139.878906 26.300781 140.5625 26.488281 141.171875 C 26.488281 141.359375 26.566406 141.511719 26.640625 141.703125 C 26.832031 142.160156 27.097656 142.578125 27.441406 142.917969 L 38.828125 154.304688 C 39.585938 155.027344 40.535156 155.40625 41.523438 155.40625 C 42.511719 155.40625 43.460938 155.027344 44.21875 154.304688 C 45.699219 152.824219 45.699219 150.394531 44.21875 148.914062 L 39.28125 144.015625 L 60.503906 144.015625 C 62.59375 144.015625 64.300781 142.3125 64.300781 140.222656 Z M 64.300781 140.222656 " fill-opacity="1" fill-rule="nonzero"/></g><g clip-path="url(#4dd2baadab)"><path fill="#d5bdaf" d="M 37.726562 49.113281 C 43.988281 49.113281 49.113281 43.988281 49.113281 37.726562 C 49.113281 31.464844 43.988281 26.339844 37.726562 26.339844 C 31.464844 26.339844 26.339844 31.464844 26.339844 37.726562 C 26.339844 43.988281 31.464844 49.113281 37.726562 49.113281 Z M 37.726562 33.933594 C 39.8125 33.933594 41.523438 35.636719 41.523438 37.726562 C 41.523438 39.8125 39.8125 41.523438 37.726562 41.523438 C 35.636719 41.523438 33.933594 39.8125 33.933594 37.726562 C 33.933594 35.636719 35.636719 33.933594 37.726562 33.933594 Z M 37.726562 33.933594 " fill-opacity="1" fill-rule="nonzero"/></g><g clip-path="url(#1c3e4c7fe3)"><path fill="#d5bdaf" d="M 37.726562 231.328125 C 31.464844 231.328125 26.339844 236.453125 26.339844 242.71875 C 26.339844 248.980469 31.464844 254.105469 37.726562 254.105469 C 43.988281 254.105469 49.113281 248.980469 49.113281 242.71875 C 49.113281 236.453125 43.988281 231.328125 37.726562 231.328125 Z M 37.726562 246.515625 C 35.636719 246.515625 33.933594 244.804688 33.933594 242.71875 C 33.933594 240.628906 35.636719 238.921875 37.726562 238.921875 C 39.8125 238.921875 41.523438 240.628906 41.523438 242.71875 C 41.523438 244.804688 39.8125 246.515625 37.726562 246.515625 Z M 37.726562 246.515625 " fill-opacity="1" fill-rule="nonzero"/></g><g clip-path="url(#c805f15c52)"><path fill="#f5f5f2" d="M 198.332031 140.269531 C 198.332031 141.21875 198.308594 142.167969 198.261719 143.117188 C 198.214844 144.066406 198.144531 145.015625 198.054688 145.960938 C 197.960938 146.90625 197.84375 147.847656 197.703125 148.789062 C 197.5625 149.730469 197.402344 150.664062 197.214844 151.597656 C 197.03125 152.527344 196.824219 153.453125 196.59375 154.378906 C 196.363281 155.296875 196.109375 156.214844 195.835938 157.125 C 195.554688 158.035156 195.257812 158.9375 194.941406 159.832031 C 194.617188 160.726562 194.277344 161.609375 193.914062 162.488281 C 193.550781 163.367188 193.164062 164.238281 192.757812 165.097656 C 192.351562 165.953125 191.925781 166.800781 191.476562 167.640625 C 191.027344 168.480469 190.558594 169.304688 190.070312 170.117188 C 189.585938 170.933594 189.074219 171.738281 188.546875 172.527344 C 188.019531 173.316406 187.472656 174.09375 186.90625 174.859375 C 186.339844 175.621094 185.757812 176.371094 185.15625 177.105469 C 184.550781 177.839844 183.929688 178.558594 183.289062 179.261719 C 182.652344 179.964844 182 180.65625 181.328125 181.328125 C 180.65625 182 179.964844 182.652344 179.261719 183.289062 C 178.558594 183.929688 177.839844 184.550781 177.105469 185.15625 C 176.371094 185.757812 175.621094 186.339844 174.859375 186.90625 C 174.09375 187.472656 173.316406 188.019531 172.527344 188.546875 C 171.738281 189.074219 170.933594 189.585938 170.117188 190.070312 C 169.304688 190.558594 168.480469 191.027344 167.640625 191.476562 C 166.800781 191.925781 165.953125 192.351562 165.097656 192.757812 C 164.238281 193.164062 163.367188 193.550781 162.488281 193.914062 C 161.609375 194.277344 160.726562 194.617188 159.832031 194.941406 C 158.9375 195.257812 158.035156 195.554688 157.125 195.835938 C 156.214844 196.109375 155.296875 196.363281 154.378906 196.59375 C 153.453125 196.824219 152.527344 197.03125 151.597656 197.214844 C 150.664062 197.402344 149.730469 197.5625 148.789062 197.703125 C 147.847656 197.84375 146.90625 197.960938 145.960938 198.054688 C 145.015625 198.144531 144.066406 198.214844 143.117188 198.261719 C 142.171875 198.308594 141.21875 198.332031 140.269531 198.332031 C 139.320312 198.332031 138.371094 198.308594 137.417969 198.261719 C 136.46875 198.214844 135.523438 198.144531 134.578125 198.054688 C 133.632812 197.960938 132.6875 197.84375 131.75 197.703125 C 130.808594 197.5625 129.871094 197.402344 128.941406 197.214844 C 128.007812 197.03125 127.082031 196.824219 126.160156 196.59375 C 125.238281 196.363281 124.324219 196.109375 123.414062 195.835938 C 122.507812 195.554688 121.601562 195.257812 120.710938 194.941406 C 119.8125 194.617188 118.925781 194.277344 118.050781 193.914062 C 117.171875 193.550781 116.304688 193.164062 115.445312 192.757812 C 114.585938 192.351562 113.734375 191.925781 112.898438 191.476562 C 112.058594 191.027344 111.234375 190.558594 110.417969 190.070312 C 109.601562 189.585938 108.800781 189.074219 108.011719 188.546875 C 107.222656 188.019531 106.445312 187.472656 105.683594 186.90625 C 104.917969 186.339844 104.167969 185.757812 103.433594 185.15625 C 102.699219 184.550781 101.980469 183.929688 101.277344 183.289062 C 100.570312 182.652344 99.886719 182 99.214844 181.328125 C 98.539062 180.65625 97.882812 179.964844 97.246094 179.261719 C 96.609375 178.558594 95.988281 177.839844 95.386719 177.105469 C 94.785156 176.371094 94.199219 175.621094 93.632812 174.859375 C 93.066406 174.09375 92.519531 173.316406 91.988281 172.527344 C 91.464844 171.738281 90.957031 170.933594 90.464844 170.117188 C 89.976562 169.304688 89.507812 168.480469 89.0625 167.640625 C 88.613281 166.800781 88.1875 165.953125 87.78125 165.097656 C 87.375 164.238281 86.988281 163.367188 86.625 162.488281 C 86.261719 161.609375 85.917969 160.726562 85.601562 159.832031 C 85.277344 158.9375 84.980469 158.035156 84.707031 157.125 C 84.429688 156.214844 84.175781 155.296875 83.945312 154.378906 C 83.714844 153.453125 83.507812 152.527344 83.320312 151.597656 C 83.136719 150.664062 82.972656 149.730469 82.832031 148.789062 C 82.695312 147.847656 82.578125 146.90625 82.484375 145.960938 C 82.390625 145.015625 82.320312 144.066406 82.273438 143.117188 C 82.226562 142.167969 82.203125 141.21875 82.203125 140.269531 C 82.203125 139.320312 82.226562 138.371094 82.273438 137.417969 C 82.320312 136.46875 82.390625 135.523438 82.484375 134.578125 C 82.578125 133.632812 82.695312 132.6875 82.832031 131.75 C 82.972656 130.808594 83.136719 129.871094 83.320312 128.941406 C 83.507812 128.007812 83.714844 127.082031 83.945312 126.160156 C 84.175781 125.238281 84.429688 124.324219 84.707031 123.414062 C 84.980469 122.507812 85.277344 121.601562 85.601562 120.710938 C 85.917969 119.8125 86.261719 118.925781 86.625 118.050781 C 86.988281 117.171875 87.375 116.304688 87.78125 115.445312 C 88.1875 114.585938 88.613281 113.734375 89.0625 112.898438 C 89.507812 112.058594 89.976562 111.234375 90.464844 110.417969 C 90.957031 109.601562 91.464844 108.800781 91.988281 108.011719 C 92.519531 107.222656 93.066406 106.445312 93.632812 105.683594 C 94.199219 104.917969 94.785156 104.167969 95.386719 103.433594 C 95.988281 102.699219 96.609375 101.980469 97.246094 101.277344 C 97.882812 100.570312 98.539062 99.886719 99.214844 99.214844 C 99.886719 98.539062 100.570312 97.882812 101.277344 97.246094 C 101.980469 96.609375 102.699219 95.988281 103.433594 95.386719 C 104.167969 94.785156 104.917969 94.199219 105.683594 93.632812 C 106.445312 93.066406 107.222656 92.519531 108.011719 91.988281 C 108.800781 91.464844 109.601562 90.957031 110.417969 90.464844 C 111.234375 89.976562 112.058594 89.507812 112.898438 89.0625 C 113.734375 88.613281 114.585938 88.1875 115.445312 87.78125 C 116.304688 87.375 117.171875 86.988281 118.050781 86.625 C 118.925781 86.261719 119.8125 85.917969 120.710938 85.601562 C 121.601562 85.277344 122.507812 84.980469 123.414062 84.707031 C 124.324219 84.429688 125.238281 84.175781 126.160156 83.945312 C 127.082031 83.714844 128.007812 83.507812 128.941406 83.320312 C 129.871094 83.136719 130.808594 82.972656 131.75 82.832031 C 132.6875 82.695312 133.632812 82.578125 134.578125 82.484375 C 135.523438 82.390625 136.46875 82.320312 137.417969 82.273438 C 138.371094 82.226562 139.320312 82.203125 140.269531 82.203125 C 141.21875 82.203125 142.171875 82.226562 143.117188 82.273438 C 144.066406 82.320312 145.015625 82.390625 145.960938 82.484375 C 146.90625 82.578125 147.847656 82.695312 148.789062 82.832031 C 149.730469 82.972656 150.664062 83.136719 151.597656 83.320312 C 152.527344 83.507812 153.453125 83.714844 154.378906 83.945312 C 155.296875 84.175781 156.214844 84.429688 157.125 84.707031 C 158.035156 84.980469 158.9375 85.277344 159.832031 85.601562 C 160.726562 85.917969 161.609375 86.261719 162.488281 86.625 C 163.367188 86.988281 164.238281 87.375 165.097656 87.78125 C 165.953125 88.1875 166.800781 88.613281 167.640625 89.0625 C 168.480469 89.507812 169.304688 89.976562 170.117188 90.464844 C 170.933594 90.957031 171.738281 91.464844 172.527344 91.988281 C 173.316406 92.519531 174.09375 93.066406 174.859375 93.632812 C 175.621094 94.199219 176.371094 94.785156 177.105469 95.386719 C 177.839844 95.988281 178.558594 96.609375 179.261719 97.246094 C 179.964844 97.882812 180.65625 98.539062 181.328125 99.214844 C 182 99.886719 182.652344 100.570312 183.289062 101.277344 C 183.929688 101.980469 184.550781 102.699219 185.15625 103.433594 C 185.757812 104.167969 186.339844 104.917969 186.90625 105.683594 C 187.472656 106.445312 188.019531 107.222656 188.546875 108.011719 C 189.074219 108.800781 189.585938 109.601562 190.070312 110.417969 C 190.558594 111.234375 191.027344 112.058594 191.476562 112.898438 C 191.925781 113.734375 192.351562 114.585938 192.757812 115.445312 C 193.164062 116.304688 193.550781 117.171875 193.914062 118.050781 C 194.277344 118.925781 194.617188 119.8125 194.941406 120.710938 C 195.257812 121.601562 195.554688 122.507812 195.835938 123.414062 C 196.109375 124.324219 196.363281 125.238281 196.59375 126.160156 C 196.824219 127.082031 197.03125 128.007812 197.214844 128.941406 C 197.402344 129.871094 197.5625 130.808594 197.703125 131.75 C 197.84375 132.6875 197.960938 133.632812 198.054688 134.578125 C 198.144531 135.523438 198.214844 136.46875 198.261719 137.417969 C 198.308594 138.371094 198.332031 139.320312 198.332031 140.269531 Z M 198.332031 140.269531 " fill-opacity="1" fill-rule="nonzero"/></g><path fill="#d5bdaf" d="M 134.234375 131.722656 C 134.929688 131.769531 135.453125 131.964844 135.800781 132.308594 C 136.15625 132.667969 136.394531 133.09375 136.519531 133.582031 C 136.664062 134.109375 136.734375 134.648438 136.730469 135.195312 L 136.730469 136.792969 L 133.300781 136.792969 L 133.300781 135.078125 L 126.449219 135.078125 L 126.449219 145.359375 L 133.300781 145.359375 L 133.300781 143.644531 L 136.730469 143.644531 C 136.730469 144.132812 136.730469 144.6875 136.71875 145.285156 C 136.710938 145.859375 136.628906 146.425781 136.460938 146.972656 C 136.308594 147.484375 136.042969 147.925781 135.667969 148.296875 C 135.296875 148.65625 134.75 148.835938 134.011719 148.835938 L 127.378906 148.835938 C 127.085938 148.835938 126.6875 148.824219 126.183594 148.796875 C 125.675781 148.773438 125.1875 148.679688 124.710938 148.503906 C 124.234375 148.328125 123.820312 148.058594 123.476562 147.683594 C 123.128906 147.308594 122.953125 146.765625 122.953125 146.046875 L 122.953125 137.035156 C 122.953125 136.515625 122.972656 136.046875 123.003906 135.632812 C 123.035156 135.214844 123.085938 134.746094 123.148438 134.222656 C 123.25 133.488281 123.472656 132.945312 123.824219 132.59375 C 124.175781 132.242188 124.59375 131.996094 125.070312 131.863281 C 125.578125 131.71875 126.089844 131.65625 126.613281 131.667969 C 127.160156 131.675781 127.679688 131.679688 128.167969 131.679688 C 128.671875 131.679688 129.101562 131.679688 129.453125 131.691406 C 129.804688 131.703125 130.175781 131.703125 130.578125 131.703125 C 130.976562 131.703125 131.457031 131.703125 132.011719 131.714844 C 132.5625 131.726562 133.304688 131.722656 134.234375 131.722656 Z M 134.234375 131.722656 " fill-opacity="1" fill-rule="nonzero"/><path fill="#d5bdaf" d="M 138.417969 131.75 L 141.847656 131.75 L 141.847656 148.882812 L 138.417969 148.882812 Z M 138.417969 131.75 " fill-opacity="1" fill-rule="nonzero"/><path fill="#d5bdaf" d="M 155.011719 131.894531 C 155.75 131.992188 156.292969 132.214844 156.644531 132.566406 C 156.992188 132.921875 157.238281 133.335938 157.375 133.8125 C 157.515625 134.320312 157.582031 134.832031 157.570312 135.355469 C 157.5625 135.902344 157.558594 136.421875 157.558594 136.910156 L 154.132812 136.910156 L 154.132812 135.195312 L 147.28125 135.195312 L 147.28125 145.484375 L 154.132812 145.484375 L 154.132812 142.023438 L 149.847656 142.023438 L 149.847656 138.597656 L 157.558594 138.597656 L 157.558594 143.746094 C 157.558594 144.238281 157.558594 144.769531 157.582031 145.339844 C 157.605469 145.890625 157.542969 146.429688 157.398438 146.960938 C 157.269531 147.453125 157.027344 147.878906 156.667969 148.238281 C 156.320312 148.585938 155.773438 148.769531 155.039062 148.800781 C 153.929688 148.847656 152.910156 148.863281 151.980469 148.847656 C 151.050781 148.832031 150.054688 148.824219 148.992188 148.824219 C 148.503906 148.824219 147.964844 148.824219 147.378906 148.8125 C 146.820312 148.808594 146.265625 148.738281 145.726562 148.605469 C 145.234375 148.492188 144.804688 148.261719 144.441406 147.910156 C 144.09375 147.578125 143.921875 147.082031 143.925781 146.429688 C 143.925781 144.386719 143.917969 142.386719 143.902344 140.421875 C 143.886719 138.453125 143.902344 136.453125 143.949219 134.414062 C 143.96875 133.679688 144.152344 133.128906 144.503906 132.761719 C 144.859375 132.386719 145.289062 132.128906 145.789062 131.988281 C 146.3125 131.839844 146.855469 131.765625 147.402344 131.769531 L 151.574219 131.769531 C 152.234375 131.769531 152.777344 131.769531 153.203125 131.78125 C 153.628906 131.792969 153.96875 131.800781 154.230469 131.820312 C 154.492188 131.835938 154.753906 131.859375 155.011719 131.894531 Z M 155.011719 131.894531 " fill-opacity="1" fill-rule="nonzero"/><path fill="#d5bdaf" d="M 140.269531 140.246094 L 140.316406 140.269531 L 140.269531 140.292969 L 140.222656 140.269531 Z M 140.269531 140.246094 " fill-opacity="1" fill-rule="nonzero"/><path fill="#d5bdaf" d="M 131.515625 165.886719 L 131.515625 180.839844 L 137.96875 180.839844 L 137.96875 167.242188 C 137.550781 167.210938 137.132812 167.160156 136.71875 167.105469 C 134.945312 166.875 133.210938 166.46875 131.515625 165.886719 Z M 131.515625 165.886719 " fill-opacity="1" fill-rule="nonzero"/><path fill="#d5bdaf" d="M 131.515625 102.542969 L 131.515625 114.652344 C 133.613281 113.933594 135.761719 113.480469 137.96875 113.296875 L 137.96875 99.703125 L 131.515625 99.703125 Z M 131.515625 102.542969 " fill-opacity="1" fill-rule="nonzero"/><path fill="#d5bdaf" d="M 149.023438 102.542969 L 149.023438 99.703125 L 142.566406 99.703125 L 142.566406 113.296875 C 144.777344 113.480469 146.925781 113.933594 149.023438 114.652344 Z M 149.023438 102.542969 " fill-opacity="1" fill-rule="nonzero"/><path fill="#d5bdaf" d="M 140.222656 140.269531 L 140.269531 140.292969 L 140.316406 140.269531 L 140.269531 140.25 Z M 140.222656 140.269531 " fill-opacity="1" fill-rule="nonzero"/><path fill="#d5bdaf" d="M 149.023438 165.886719 C 147.460938 166.421875 145.863281 166.808594 144.234375 167.050781 C 143.683594 167.128906 143.128906 167.195312 142.566406 167.242188 L 142.566406 180.835938 L 149.023438 180.835938 Z M 149.023438 165.886719 " fill-opacity="1" fill-rule="nonzero"/><path fill="#d5bdaf" d="M 102.332031 132.464844 C 102.273438 132.753906 102.21875 133.046875 102.160156 133.335938 C 102.097656 133.683594 102.039062 134.03125 101.984375 134.378906 C 101.980469 134.410156 101.972656 134.4375 101.972656 134.472656 C 101.945312 134.679688 101.914062 134.882812 101.882812 135.089844 C 101.867188 135.238281 101.847656 135.382812 101.832031 135.535156 C 101.8125 135.683594 101.789062 135.882812 101.769531 136.054688 C 101.636719 137.257812 101.558594 138.488281 101.542969 139.71875 C 101.542969 139.894531 101.542969 140.078125 101.542969 140.257812 L 101.542969 140.421875 C 101.542969 140.710938 101.554688 141.003906 101.5625 141.292969 C 101.5625 141.339844 101.5625 141.386719 101.5625 141.433594 C 101.5625 141.636719 101.578125 141.835938 101.582031 142.035156 C 101.582031 142.191406 101.601562 142.347656 101.609375 142.496094 C 101.613281 142.507812 101.613281 142.515625 101.609375 142.519531 C 101.609375 142.613281 101.621094 142.710938 101.625 142.800781 C 101.625 142.820312 101.625 142.84375 101.625 142.867188 C 101.644531 143.125 101.660156 143.375 101.679688 143.625 C 101.679688 143.640625 101.679688 143.652344 101.679688 143.667969 C 101.707031 143.984375 101.742188 144.304688 101.773438 144.621094 L 101.824219 145.039062 C 101.84375 145.210938 101.867188 145.386719 101.890625 145.558594 C 101.921875 145.785156 101.949219 146.007812 101.984375 146.230469 C 102.03125 146.523438 102.078125 146.820312 102.132812 147.109375 C 102.160156 147.269531 102.1875 147.429688 102.21875 147.585938 C 102.300781 148.007812 102.390625 148.421875 102.480469 148.839844 C 102.523438 149.039062 102.574219 149.242188 102.621094 149.441406 L 102.773438 150.039062 C 103.167969 151.542969 103.648438 153.023438 104.222656 154.46875 C 104.792969 155.917969 105.453125 157.328125 106.195312 158.695312 C 106.933594 160.0625 107.757812 161.382812 108.660156 162.652344 C 109.558594 163.921875 110.53125 165.132812 111.578125 166.285156 C 112.628906 167.4375 113.738281 168.527344 114.914062 169.542969 C 116.09375 170.5625 117.324219 171.507812 118.617188 172.378906 C 119.910156 173.246094 121.246094 174.035156 122.632812 174.746094 C 124.019531 175.453125 125.441406 176.078125 126.902344 176.617188 L 126.902344 163.792969 C 124.578125 162.457031 122.492188 160.816406 120.652344 158.867188 C 118.808594 156.917969 117.285156 154.742188 116.085938 152.347656 C 114.195312 148.566406 113.253906 144.5625 113.261719 140.339844 L 113.261719 140.167969 C 113.253906 135.945312 114.195312 131.945312 116.085938 128.171875 C 117.285156 125.769531 118.804688 123.597656 120.648438 121.644531 C 122.492188 119.695312 124.574219 118.054688 126.902344 116.71875 L 126.902344 103.898438 C 125.363281 104.464844 123.863281 105.125 122.410156 105.882812 C 120.953125 106.644531 119.550781 107.492188 118.203125 108.425781 C 116.851562 109.363281 115.570312 110.378906 114.351562 111.480469 C 113.128906 112.578125 111.984375 113.753906 110.914062 114.996094 C 109.847656 116.242188 108.859375 117.546875 107.953125 118.917969 C 107.050781 120.289062 106.234375 121.707031 105.507812 123.183594 C 104.785156 124.65625 104.160156 126.171875 103.628906 127.726562 C 103.097656 129.277344 102.664062 130.855469 102.332031 132.464844 Z M 112.054688 154.386719 L 109.429688 155.695312 C 108.835938 154.503906 108.304688 153.28125 107.851562 152.023438 C 107.398438 150.769531 107.015625 149.492188 106.707031 148.195312 C 106.402344 146.894531 106.171875 145.582031 106.015625 144.261719 C 105.859375 142.933594 105.785156 141.605469 105.785156 140.269531 C 105.785156 138.933594 105.859375 137.605469 106.015625 136.277344 C 106.171875 134.953125 106.402344 133.640625 106.707031 132.339844 C 107.015625 131.042969 107.398438 129.765625 107.851562 128.511719 C 108.304688 127.257812 108.835938 126.03125 109.429688 124.839844 L 112.054688 126.15625 C 111.507812 127.246094 111.027344 128.367188 110.609375 129.511719 C 110.195312 130.660156 109.84375 131.832031 109.5625 133.019531 C 109.28125 134.207031 109.070312 135.40625 108.929688 136.617188 C 108.789062 137.832031 108.71875 139.050781 108.71875 140.269531 C 108.71875 141.492188 108.789062 142.707031 108.929688 143.921875 C 109.070312 145.132812 109.28125 146.335938 109.5625 147.523438 C 109.84375 148.710938 110.195312 149.878906 110.609375 151.027344 C 111.027344 152.175781 111.507812 153.292969 112.054688 154.386719 Z M 112.054688 154.386719 " fill-opacity="1" fill-rule="nonzero"/><path fill="#d5bdaf" d="M 178.988281 139.726562 C 178.972656 138.492188 178.894531 137.269531 178.761719 136.0625 C 178.742188 135.890625 178.722656 135.714844 178.699219 135.542969 C 178.675781 135.367188 178.664062 135.246094 178.648438 135.097656 C 178.617188 134.890625 178.589844 134.6875 178.558594 134.480469 C 178.558594 134.449219 178.550781 134.414062 178.546875 134.386719 C 178.492188 134.039062 178.433594 133.691406 178.371094 133.34375 C 178.320312 133.046875 178.265625 132.757812 178.199219 132.472656 C 178.152344 132.253906 178.105469 132.035156 178.058594 131.820312 C 177.96875 131.414062 177.875 131.015625 177.773438 130.613281 C 177.71875 130.414062 177.664062 130.21875 177.613281 130.019531 C 177.207031 128.535156 176.710938 127.085938 176.128906 125.664062 C 175.550781 124.242188 174.886719 122.859375 174.140625 121.515625 C 173.398438 120.171875 172.574219 118.878906 171.675781 117.632812 C 170.777344 116.386719 169.804688 115.199219 168.765625 114.066406 C 167.726562 112.9375 166.625 111.871094 165.457031 110.871094 C 164.289062 109.871094 163.066406 108.941406 161.792969 108.089844 C 160.515625 107.234375 159.195312 106.460938 157.824219 105.761719 C 156.457031 105.0625 155.050781 104.449219 153.605469 103.917969 L 153.605469 116.742188 C 155.9375 118.074219 158.023438 119.714844 159.867188 121.667969 C 161.707031 123.621094 163.230469 125.792969 164.429688 128.195312 C 166.316406 131.96875 167.257812 135.96875 167.253906 140.191406 L 167.253906 140.363281 C 167.253906 142.046875 167.097656 143.714844 166.785156 145.371094 C 166.472656 147.023438 166.007812 148.632812 165.390625 150.199219 C 164.777344 151.765625 164.019531 153.261719 163.125 154.6875 C 162.230469 156.109375 161.210938 157.441406 160.0625 158.671875 C 158.175781 160.71875 156.023438 162.433594 153.605469 163.816406 L 153.605469 176.640625 C 156.179688 175.695312 158.625 174.488281 160.9375 173.023438 C 163.253906 171.558594 165.390625 169.871094 167.347656 167.953125 C 169.308594 166.035156 171.042969 163.9375 172.558594 161.652344 C 174.070312 159.367188 175.332031 156.953125 176.332031 154.402344 L 176.519531 153.910156 C 176.714844 153.386719 176.898438 152.867188 177.074219 152.347656 C 177.121094 152.191406 177.171875 152.039062 177.21875 151.882812 C 177.289062 151.671875 177.351562 151.460938 177.410156 151.25 C 177.53125 150.859375 177.640625 150.464844 177.742188 150.0625 C 177.84375 149.664062 177.945312 149.265625 178.035156 148.863281 C 178.125 148.46875 178.207031 148.03125 178.292969 147.609375 C 178.324219 147.453125 178.351562 147.292969 178.382812 147.136719 C 178.433594 146.84375 178.480469 146.546875 178.527344 146.253906 C 178.5625 146.035156 178.59375 145.808594 178.621094 145.585938 C 178.644531 145.410156 178.664062 145.238281 178.6875 145.0625 L 178.738281 144.644531 C 178.773438 144.328125 178.804688 144.007812 178.832031 143.691406 C 178.835938 143.679688 178.835938 143.664062 178.832031 143.652344 C 178.851562 143.398438 178.871094 143.148438 178.886719 142.890625 C 178.886719 142.867188 178.886719 142.847656 178.886719 142.824219 L 178.902344 142.550781 C 178.902344 142.542969 178.902344 142.53125 178.902344 142.519531 C 178.902344 142.417969 178.914062 142.316406 178.917969 142.210938 C 178.917969 142.164062 178.917969 142.121094 178.917969 142.074219 C 178.929688 141.867188 178.9375 141.664062 178.945312 141.457031 C 178.945312 141.410156 178.945312 141.359375 178.945312 141.316406 C 178.957031 141.023438 178.964844 140.734375 178.964844 140.445312 L 178.964844 140.269531 C 178.992188 140.097656 178.988281 139.910156 178.988281 139.726562 Z M 171.105469 155.695312 L 168.484375 154.386719 C 169.03125 153.292969 169.515625 152.175781 169.929688 151.027344 C 170.347656 149.878906 170.695312 148.710938 170.976562 147.523438 C 171.257812 146.335938 171.46875 145.132812 171.609375 143.921875 C 171.75 142.707031 171.820312 141.492188 171.820312 140.269531 C 171.820312 139.050781 171.75 137.832031 171.609375 136.617188 C 171.46875 135.40625 171.257812 134.207031 170.976562 133.019531 C 170.695312 131.832031 170.347656 130.660156 169.929688 129.511719 C 169.515625 128.367188 169.03125 127.246094 168.484375 126.15625 L 171.105469 124.839844 C 171.707031 126.03125 172.230469 127.257812 172.6875 128.511719 C 173.144531 129.765625 173.523438 131.042969 173.828125 132.339844 C 174.136719 133.640625 174.367188 134.953125 174.523438 136.277344 C 174.675781 137.605469 174.753906 138.933594 174.753906 140.269531 C 174.753906 141.605469 174.675781 142.933594 174.523438 144.261719 C 174.367188 145.582031 174.136719 146.894531 173.828125 148.195312 C 173.523438 149.492188 173.144531 150.769531 172.6875 152.023438 C 172.230469 153.28125 171.707031 154.503906 171.105469 155.695312 Z M 171.105469 155.695312 " fill-opacity="1" fill-rule="nonzero"/></svg>